<mxfile host="app.diagrams.net" agent="Mozilla/5.0 (Windows NT 10.0; Win64; x64) AppleWebKit/537.36 (KHTML, like Gecko) Chrome/138.0.0.0 Safari/537.36" version="28.0.6">
  <diagram name="Seite-1" id="B0Wolev3-DbgfMnW1-c8">
    <mxGraphModel dx="594" dy="360" grid="1" gridSize="10" guides="1" tooltips="1" connect="1" arrows="1" fold="1" page="1" pageScale="1" pageWidth="1169" pageHeight="827" math="0" shadow="0">
      <root>
        <mxCell id="0" />
        <mxCell id="1" parent="0" />
        <mxCell id="u7kxUPXxIa-7Uggaq3-m-4" value="" style="shape=umlLifeline;perimeter=lifelinePerimeter;whiteSpace=wrap;html=1;container=1;dropTarget=0;collapsible=0;recursiveResize=0;outlineConnect=0;portConstraint=eastwest;newEdgeStyle={&quot;curved&quot;:0,&quot;rounded&quot;:0};participant=umlActor;" vertex="1" parent="1">
          <mxGeometry x="10" y="50" width="20" height="210" as="geometry" />
        </mxCell>
        <mxCell id="u7kxUPXxIa-7Uggaq3-m-5" value="" style="html=1;whiteSpace=wrap;" vertex="1" parent="1">
          <mxGeometry x="10" y="100" width="20" height="150" as="geometry" />
        </mxCell>
        <mxCell id="u7kxUPXxIa-7Uggaq3-m-7" value="&lt;font style=&quot;font-size: 4px;&quot;&gt;createMeeting(MeetingCreationRequest)&lt;/font&gt;" style="html=1;verticalAlign=bottom;endArrow=block;curved=0;rounded=0;" edge="1" parent="1">
          <mxGeometry width="80" relative="1" as="geometry">
            <mxPoint x="30" y="110" as="sourcePoint" />
            <mxPoint x="110" y="110" as="targetPoint" />
          </mxGeometry>
        </mxCell>
        <mxCell id="u7kxUPXxIa-7Uggaq3-m-8" value="&lt;font style=&quot;font-size: 11px;&quot;&gt;:MeetingController&lt;/font&gt;" style="shape=umlLifeline;perimeter=lifelinePerimeter;whiteSpace=wrap;html=1;container=1;dropTarget=0;collapsible=0;recursiveResize=0;outlineConnect=0;portConstraint=eastwest;newEdgeStyle={&quot;curved&quot;:0,&quot;rounded&quot;:0};" vertex="1" parent="1">
          <mxGeometry x="70" y="50" width="100" height="210" as="geometry" />
        </mxCell>
        <mxCell id="u7kxUPXxIa-7Uggaq3-m-9" value="" style="html=1;whiteSpace=wrap;" vertex="1" parent="1">
          <mxGeometry x="110" y="110" width="20" height="140" as="geometry" />
        </mxCell>
        <mxCell id="u7kxUPXxIa-7Uggaq3-m-10" value="&lt;font style=&quot;font-size: 11px;&quot;&gt;:MeetingService&lt;/font&gt;" style="shape=umlLifeline;perimeter=lifelinePerimeter;whiteSpace=wrap;html=1;container=1;dropTarget=0;collapsible=0;recursiveResize=0;outlineConnect=0;portConstraint=eastwest;newEdgeStyle={&quot;curved&quot;:0,&quot;rounded&quot;:0};" vertex="1" parent="1">
          <mxGeometry x="180" y="50" width="100" height="210" as="geometry" />
        </mxCell>
        <mxCell id="u7kxUPXxIa-7Uggaq3-m-11" value="&lt;font style=&quot;font-size: 11px;&quot;&gt;:MeetingRepository&lt;/font&gt;" style="shape=umlLifeline;perimeter=lifelinePerimeter;whiteSpace=wrap;html=1;container=1;dropTarget=0;collapsible=0;recursiveResize=0;outlineConnect=0;portConstraint=eastwest;newEdgeStyle={&quot;curved&quot;:0,&quot;rounded&quot;:0};" vertex="1" parent="1">
          <mxGeometry x="400" y="50" width="100" height="210" as="geometry" />
        </mxCell>
        <mxCell id="u7kxUPXxIa-7Uggaq3-m-12" value="&lt;font style=&quot;font-size: 11px;&quot;&gt;:MeetingMapper&lt;/font&gt;" style="shape=umlLifeline;perimeter=lifelinePerimeter;whiteSpace=wrap;html=1;container=1;dropTarget=0;collapsible=0;recursiveResize=0;outlineConnect=0;portConstraint=eastwest;newEdgeStyle={&quot;curved&quot;:0,&quot;rounded&quot;:0};" vertex="1" parent="1">
          <mxGeometry x="290" y="50" width="100" height="210" as="geometry" />
        </mxCell>
        <mxCell id="u7kxUPXxIa-7Uggaq3-m-13" value="" style="html=1;whiteSpace=wrap;" vertex="1" parent="1">
          <mxGeometry x="220" y="120" width="20" height="130" as="geometry" />
        </mxCell>
        <mxCell id="u7kxUPXxIa-7Uggaq3-m-15" value="&lt;div style=&quot;line-height: 60%;&quot;&gt;&lt;span style=&quot;font-size: 4px; line-height: 60%;&quot;&gt;saveMeetingTo&lt;/span&gt;&lt;div&gt;&lt;span style=&quot;font-size: 4px; line-height: 60%;&quot;&gt;Database(MeetingCreationRequest)&lt;/span&gt;&lt;/div&gt;&lt;/div&gt;" style="html=1;verticalAlign=bottom;endArrow=block;curved=0;rounded=0;entryX=0;entryY=0;entryDx=0;entryDy=0;" edge="1" parent="1" target="u7kxUPXxIa-7Uggaq3-m-13">
          <mxGeometry width="80" relative="1" as="geometry">
            <mxPoint x="130" y="120" as="sourcePoint" />
            <mxPoint x="210" y="120" as="targetPoint" />
          </mxGeometry>
        </mxCell>
        <mxCell id="u7kxUPXxIa-7Uggaq3-m-16" value="" style="html=1;whiteSpace=wrap;" vertex="1" parent="1">
          <mxGeometry x="330" y="130" width="20" height="40" as="geometry" />
        </mxCell>
        <mxCell id="u7kxUPXxIa-7Uggaq3-m-17" value="&lt;div style=&quot;line-height: 60%;&quot;&gt;&lt;font style=&quot;font-size: 4px; line-height: 60%;&quot;&gt;MeetingCreationRequest&lt;span style=&quot;color: light-dark(rgb(0, 0, 0), rgb(255, 255, 255));&quot;&gt;To&lt;/span&gt;&lt;/font&gt;&lt;div&gt;&lt;span style=&quot;color: light-dark(rgb(0, 0, 0), rgb(255, 255, 255));&quot;&gt;&lt;font style=&quot;font-size: 4px; line-height: 60%;&quot;&gt;MeetingEntity(MeetingCreationRequest)&lt;/font&gt;&lt;/span&gt;&lt;/div&gt;&lt;/div&gt;" style="html=1;verticalAlign=bottom;endArrow=block;curved=0;rounded=0;entryX=0;entryY=0;entryDx=0;entryDy=0;" edge="1" parent="1">
          <mxGeometry width="80" relative="1" as="geometry">
            <mxPoint x="240" y="130" as="sourcePoint" />
            <mxPoint x="330" y="130" as="targetPoint" />
          </mxGeometry>
        </mxCell>
        <mxCell id="u7kxUPXxIa-7Uggaq3-m-18" value="" style="html=1;verticalAlign=bottom;endArrow=block;curved=1;rounded=0;entryX=1;entryY=0;entryDx=0;entryDy=0;" edge="1" parent="1" target="u7kxUPXxIa-7Uggaq3-m-20">
          <mxGeometry width="80" relative="1" as="geometry">
            <mxPoint x="350" y="130" as="sourcePoint" />
            <mxPoint x="430" y="130" as="targetPoint" />
            <Array as="points">
              <mxPoint x="370" y="130" />
              <mxPoint x="390" y="140" />
            </Array>
          </mxGeometry>
        </mxCell>
        <mxCell id="u7kxUPXxIa-7Uggaq3-m-19" value="&lt;font style=&quot;font-size: 4px;&quot;&gt;validate()&lt;/font&gt;" style="text;html=1;align=center;verticalAlign=middle;resizable=0;points=[];autosize=1;strokeColor=none;fillColor=none;" vertex="1" parent="1">
          <mxGeometry x="360" y="110" width="40" height="30" as="geometry" />
        </mxCell>
        <mxCell id="u7kxUPXxIa-7Uggaq3-m-20" value="" style="html=1;whiteSpace=wrap;" vertex="1" parent="1">
          <mxGeometry x="340" y="140" width="20" height="20" as="geometry" />
        </mxCell>
        <mxCell id="u7kxUPXxIa-7Uggaq3-m-21" value="" style="endArrow=block;dashed=1;endFill=0;endSize=12;html=1;rounded=0;exitX=1;exitY=0.75;exitDx=0;exitDy=0;entryX=1;entryY=1;entryDx=0;entryDy=0;curved=1;" edge="1" parent="1" source="u7kxUPXxIa-7Uggaq3-m-20" target="u7kxUPXxIa-7Uggaq3-m-16">
          <mxGeometry width="160" relative="1" as="geometry">
            <mxPoint x="220" y="210" as="sourcePoint" />
            <mxPoint x="380" y="210" as="targetPoint" />
            <Array as="points">
              <mxPoint x="390" y="160" />
            </Array>
          </mxGeometry>
        </mxCell>
        <mxCell id="u7kxUPXxIa-7Uggaq3-m-25" value="" style="endArrow=open;dashed=1;endFill=0;endSize=12;html=1;rounded=0;exitX=0;exitY=1;exitDx=0;exitDy=0;entryX=0.002;entryY=0.319;entryDx=0;entryDy=0;entryPerimeter=0;" edge="1" parent="1" source="u7kxUPXxIa-7Uggaq3-m-16" target="u7kxUPXxIa-7Uggaq3-m-24">
          <mxGeometry width="160" relative="1" as="geometry">
            <mxPoint x="330" y="170" as="sourcePoint" />
            <mxPoint x="240" y="170" as="targetPoint" />
          </mxGeometry>
        </mxCell>
        <mxCell id="u7kxUPXxIa-7Uggaq3-m-24" value="&lt;div style=&quot;line-height: 60%;&quot;&gt;&lt;font style=&quot;font-size: 4px; line-height: 60%;&quot;&gt;meetingEntity=MeetingCreationRequest&lt;/font&gt;&lt;div&gt;&lt;font style=&quot;font-size: 4px; line-height: 60%;&quot;&gt;ToMeetingEntity(MeetingCreationRequest)&lt;/font&gt;&lt;/div&gt;&lt;/div&gt;" style="text;html=1;align=center;verticalAlign=middle;resizable=0;points=[];autosize=1;strokeColor=none;fillColor=none;" vertex="1" parent="1">
          <mxGeometry x="240" y="160" width="100" height="30" as="geometry" />
        </mxCell>
        <mxCell id="u7kxUPXxIa-7Uggaq3-m-26" value="" style="html=1;whiteSpace=wrap;" vertex="1" parent="1">
          <mxGeometry x="440" y="195" width="20" height="55" as="geometry" />
        </mxCell>
        <mxCell id="u7kxUPXxIa-7Uggaq3-m-27" value="" style="endArrow=open;dashed=1;endFill=0;endSize=12;html=1;rounded=0;exitX=0;exitY=1;exitDx=0;exitDy=0;entryX=1;entryY=1;entryDx=0;entryDy=0;" edge="1" parent="1" source="u7kxUPXxIa-7Uggaq3-m-26" target="u7kxUPXxIa-7Uggaq3-m-13">
          <mxGeometry width="160" relative="1" as="geometry">
            <mxPoint x="220" y="210" as="sourcePoint" />
            <mxPoint x="380" y="210" as="targetPoint" />
          </mxGeometry>
        </mxCell>
        <mxCell id="u7kxUPXxIa-7Uggaq3-m-28" value="" style="html=1;verticalAlign=bottom;endArrow=block;curved=0;rounded=0;entryX=0;entryY=0;entryDx=0;entryDy=0;" edge="1" parent="1" target="u7kxUPXxIa-7Uggaq3-m-26">
          <mxGeometry width="80" relative="1" as="geometry">
            <mxPoint x="240" y="195" as="sourcePoint" />
            <mxPoint x="320" y="195" as="targetPoint" />
          </mxGeometry>
        </mxCell>
        <mxCell id="u7kxUPXxIa-7Uggaq3-m-29" value="&lt;font style=&quot;font-size: 4px;&quot;&gt;save(MeetingEntity)&lt;/font&gt;" style="text;html=1;align=center;verticalAlign=middle;resizable=0;points=[];autosize=1;strokeColor=none;fillColor=none;" vertex="1" parent="1">
          <mxGeometry x="265" y="185" width="60" height="30" as="geometry" />
        </mxCell>
        <mxCell id="u7kxUPXxIa-7Uggaq3-m-30" value="" style="endArrow=open;dashed=1;endFill=0;endSize=12;html=1;rounded=0;entryX=1;entryY=1;entryDx=0;entryDy=0;" edge="1" parent="1">
          <mxGeometry width="160" relative="1" as="geometry">
            <mxPoint x="220" y="250" as="sourcePoint" />
            <mxPoint x="130" y="250" as="targetPoint" />
          </mxGeometry>
        </mxCell>
        <mxCell id="u7kxUPXxIa-7Uggaq3-m-31" value="" style="endArrow=open;dashed=1;endFill=0;endSize=12;html=1;rounded=0;entryX=1;entryY=1;entryDx=0;entryDy=0;" edge="1" parent="1">
          <mxGeometry width="160" relative="1" as="geometry">
            <mxPoint x="110" y="250" as="sourcePoint" />
            <mxPoint x="30" y="249.56" as="targetPoint" />
          </mxGeometry>
        </mxCell>
        <mxCell id="u7kxUPXxIa-7Uggaq3-m-33" value="*" style="text;html=1;align=center;verticalAlign=middle;resizable=0;points=[];autosize=1;strokeColor=none;fillColor=none;" vertex="1" parent="1">
          <mxGeometry x="375" y="148" width="30" height="30" as="geometry" />
        </mxCell>
        <mxCell id="u7kxUPXxIa-7Uggaq3-m-37" value="&lt;font style=&quot;font-size: 4px;&quot;&gt;mR&lt;/font&gt;" style="text;html=1;align=center;verticalAlign=middle;resizable=0;points=[];autosize=1;strokeColor=none;fillColor=none;" vertex="1" parent="1">
          <mxGeometry x="160" y="240" width="30" height="30" as="geometry" />
        </mxCell>
        <mxCell id="u7kxUPXxIa-7Uggaq3-m-38" value="&lt;div style=&quot;line-height: 60%;&quot;&gt;&lt;font style=&quot;font-size: 4px; line-height: 60%;&quot;&gt;ResponseStatus&lt;/font&gt;&lt;div&gt;&lt;font style=&quot;font-size: 4px; line-height: 60%;&quot;&gt;(mR, HttpStatus.OK)&lt;/font&gt;&lt;/div&gt;&lt;/div&gt;" style="text;html=1;align=center;verticalAlign=middle;resizable=0;points=[];autosize=1;strokeColor=none;fillColor=none;" vertex="1" parent="1">
          <mxGeometry x="45" y="240" width="60" height="30" as="geometry" />
        </mxCell>
        <mxCell id="u7kxUPXxIa-7Uggaq3-m-39" value="&lt;font style=&quot;font-size: 4px;&quot;&gt;mR=MeetingResponse&lt;/font&gt;" style="text;html=1;align=center;verticalAlign=middle;resizable=0;points=[];autosize=1;strokeColor=none;fillColor=none;" vertex="1" parent="1">
          <mxGeometry x="265" y="240" width="60" height="30" as="geometry" />
        </mxCell>
        <mxCell id="u7kxUPXxIa-7Uggaq3-m-41" value="POST" style="text;html=1;align=center;verticalAlign=middle;resizable=0;points=[];autosize=1;strokeColor=none;fillColor=none;" vertex="1" parent="1">
          <mxGeometry y="10" width="60" height="30" as="geometry" />
        </mxCell>
        <mxCell id="u7kxUPXxIa-7Uggaq3-m-99" value="" style="shape=umlLifeline;perimeter=lifelinePerimeter;whiteSpace=wrap;html=1;container=1;dropTarget=0;collapsible=0;recursiveResize=0;outlineConnect=0;portConstraint=eastwest;newEdgeStyle={&quot;curved&quot;:0,&quot;rounded&quot;:0};participant=umlActor;" vertex="1" parent="1">
          <mxGeometry x="10" y="320" width="20" height="210" as="geometry" />
        </mxCell>
        <mxCell id="u7kxUPXxIa-7Uggaq3-m-100" value="" style="html=1;whiteSpace=wrap;" vertex="1" parent="1">
          <mxGeometry x="10" y="370" width="20" height="150" as="geometry" />
        </mxCell>
        <mxCell id="u7kxUPXxIa-7Uggaq3-m-101" value="&lt;font style=&quot;font-size: 4px;&quot;&gt;getMeeting(meetingId)&lt;/font&gt;" style="html=1;verticalAlign=bottom;endArrow=block;curved=0;rounded=0;" edge="1" parent="1">
          <mxGeometry width="80" relative="1" as="geometry">
            <mxPoint x="30" y="380" as="sourcePoint" />
            <mxPoint x="110" y="380" as="targetPoint" />
          </mxGeometry>
        </mxCell>
        <mxCell id="u7kxUPXxIa-7Uggaq3-m-102" value="&lt;font style=&quot;font-size: 11px;&quot;&gt;:MeetingController&lt;/font&gt;" style="shape=umlLifeline;perimeter=lifelinePerimeter;whiteSpace=wrap;html=1;container=1;dropTarget=0;collapsible=0;recursiveResize=0;outlineConnect=0;portConstraint=eastwest;newEdgeStyle={&quot;curved&quot;:0,&quot;rounded&quot;:0};" vertex="1" parent="1">
          <mxGeometry x="70" y="320" width="100" height="210" as="geometry" />
        </mxCell>
        <mxCell id="u7kxUPXxIa-7Uggaq3-m-103" value="" style="html=1;whiteSpace=wrap;" vertex="1" parent="1">
          <mxGeometry x="110" y="380" width="20" height="140" as="geometry" />
        </mxCell>
        <mxCell id="u7kxUPXxIa-7Uggaq3-m-104" value="&lt;font style=&quot;font-size: 11px;&quot;&gt;:MeetingService&lt;/font&gt;" style="shape=umlLifeline;perimeter=lifelinePerimeter;whiteSpace=wrap;html=1;container=1;dropTarget=0;collapsible=0;recursiveResize=0;outlineConnect=0;portConstraint=eastwest;newEdgeStyle={&quot;curved&quot;:0,&quot;rounded&quot;:0};" vertex="1" parent="1">
          <mxGeometry x="180" y="320" width="100" height="210" as="geometry" />
        </mxCell>
        <mxCell id="u7kxUPXxIa-7Uggaq3-m-105" value="&lt;font style=&quot;font-size: 11px;&quot;&gt;:MeetingMapper&lt;/font&gt;" style="shape=umlLifeline;perimeter=lifelinePerimeter;whiteSpace=wrap;html=1;container=1;dropTarget=0;collapsible=0;recursiveResize=0;outlineConnect=0;portConstraint=eastwest;newEdgeStyle={&quot;curved&quot;:0,&quot;rounded&quot;:0};" vertex="1" parent="1">
          <mxGeometry x="400" y="320" width="100" height="210" as="geometry" />
        </mxCell>
        <mxCell id="u7kxUPXxIa-7Uggaq3-m-106" value="&lt;font style=&quot;font-size: 11px;&quot;&gt;:MeetingRepository&lt;/font&gt;" style="shape=umlLifeline;perimeter=lifelinePerimeter;whiteSpace=wrap;html=1;container=1;dropTarget=0;collapsible=0;recursiveResize=0;outlineConnect=0;portConstraint=eastwest;newEdgeStyle={&quot;curved&quot;:0,&quot;rounded&quot;:0};" vertex="1" parent="1">
          <mxGeometry x="290" y="320" width="100" height="210" as="geometry" />
        </mxCell>
        <mxCell id="u7kxUPXxIa-7Uggaq3-m-107" value="" style="html=1;whiteSpace=wrap;" vertex="1" parent="1">
          <mxGeometry x="220" y="390" width="20" height="130" as="geometry" />
        </mxCell>
        <mxCell id="u7kxUPXxIa-7Uggaq3-m-108" value="&lt;div style=&quot;line-height: 60%;&quot;&gt;&lt;span style=&quot;font-size: 4px;&quot;&gt;retrieveMeetingFromDatabase(meetingId)&lt;/span&gt;&lt;/div&gt;" style="html=1;verticalAlign=bottom;endArrow=block;curved=0;rounded=0;entryX=0;entryY=0;entryDx=0;entryDy=0;" edge="1" parent="1" target="u7kxUPXxIa-7Uggaq3-m-107">
          <mxGeometry width="80" relative="1" as="geometry">
            <mxPoint x="130" y="390" as="sourcePoint" />
            <mxPoint x="210" y="390" as="targetPoint" />
          </mxGeometry>
        </mxCell>
        <mxCell id="u7kxUPXxIa-7Uggaq3-m-109" value="" style="html=1;whiteSpace=wrap;" vertex="1" parent="1">
          <mxGeometry x="330" y="400" width="20" height="40" as="geometry" />
        </mxCell>
        <mxCell id="u7kxUPXxIa-7Uggaq3-m-110" value="&lt;div style=&quot;line-height: 60%;&quot;&gt;&lt;span style=&quot;font-size: 4px;&quot;&gt;findById(meetingId)&lt;/span&gt;&lt;/div&gt;" style="html=1;verticalAlign=bottom;endArrow=block;curved=0;rounded=0;entryX=0;entryY=0;entryDx=0;entryDy=0;" edge="1" parent="1">
          <mxGeometry width="80" relative="1" as="geometry">
            <mxPoint x="240" y="400" as="sourcePoint" />
            <mxPoint x="330" y="400" as="targetPoint" />
          </mxGeometry>
        </mxCell>
        <mxCell id="u7kxUPXxIa-7Uggaq3-m-115" value="" style="endArrow=open;dashed=1;endFill=0;endSize=12;html=1;rounded=0;exitX=0;exitY=1;exitDx=0;exitDy=0;entryX=0.978;entryY=0.383;entryDx=0;entryDy=0;entryPerimeter=0;" edge="1" parent="1" source="u7kxUPXxIa-7Uggaq3-m-109" target="u7kxUPXxIa-7Uggaq3-m-107">
          <mxGeometry width="160" relative="1" as="geometry">
            <mxPoint x="330" y="440" as="sourcePoint" />
            <mxPoint x="240" y="440" as="targetPoint" />
          </mxGeometry>
        </mxCell>
        <mxCell id="u7kxUPXxIa-7Uggaq3-m-116" value="&lt;div style=&quot;line-height: 60%;&quot;&gt;&lt;span style=&quot;font-size: 4px;&quot;&gt;meeting=Optional&amp;lt;MeetingEntity&amp;gt;&lt;/span&gt;&lt;/div&gt;" style="text;html=1;align=center;verticalAlign=middle;resizable=0;points=[];autosize=1;strokeColor=none;fillColor=none;" vertex="1" parent="1">
          <mxGeometry x="255" y="440" width="80" height="20" as="geometry" />
        </mxCell>
        <mxCell id="u7kxUPXxIa-7Uggaq3-m-117" value="" style="html=1;whiteSpace=wrap;" vertex="1" parent="1">
          <mxGeometry x="440" y="465" width="20" height="55" as="geometry" />
        </mxCell>
        <mxCell id="u7kxUPXxIa-7Uggaq3-m-118" value="" style="endArrow=open;dashed=1;endFill=0;endSize=12;html=1;rounded=0;exitX=0;exitY=1;exitDx=0;exitDy=0;entryX=1;entryY=1;entryDx=0;entryDy=0;" edge="1" parent="1" source="u7kxUPXxIa-7Uggaq3-m-117" target="u7kxUPXxIa-7Uggaq3-m-107">
          <mxGeometry width="160" relative="1" as="geometry">
            <mxPoint x="220" y="480" as="sourcePoint" />
            <mxPoint x="380" y="480" as="targetPoint" />
          </mxGeometry>
        </mxCell>
        <mxCell id="u7kxUPXxIa-7Uggaq3-m-119" value="" style="html=1;verticalAlign=bottom;endArrow=block;curved=0;rounded=0;entryX=0;entryY=0;entryDx=0;entryDy=0;" edge="1" parent="1" target="u7kxUPXxIa-7Uggaq3-m-117">
          <mxGeometry width="80" relative="1" as="geometry">
            <mxPoint x="240" y="465" as="sourcePoint" />
            <mxPoint x="320" y="465" as="targetPoint" />
          </mxGeometry>
        </mxCell>
        <mxCell id="u7kxUPXxIa-7Uggaq3-m-120" value="&lt;font style=&quot;font-size: 4px;&quot;&gt;MeetingEntityToMeetingResponse(meeting)&lt;/font&gt;" style="text;html=1;align=center;verticalAlign=middle;resizable=0;points=[];autosize=1;strokeColor=none;fillColor=none;" vertex="1" parent="1">
          <mxGeometry x="245" y="455" width="100" height="30" as="geometry" />
        </mxCell>
        <mxCell id="u7kxUPXxIa-7Uggaq3-m-121" value="" style="endArrow=open;dashed=1;endFill=0;endSize=12;html=1;rounded=0;entryX=1;entryY=1;entryDx=0;entryDy=0;" edge="1" parent="1">
          <mxGeometry width="160" relative="1" as="geometry">
            <mxPoint x="220" y="520" as="sourcePoint" />
            <mxPoint x="130" y="520" as="targetPoint" />
          </mxGeometry>
        </mxCell>
        <mxCell id="u7kxUPXxIa-7Uggaq3-m-122" value="" style="endArrow=open;dashed=1;endFill=0;endSize=12;html=1;rounded=0;entryX=1;entryY=1;entryDx=0;entryDy=0;" edge="1" parent="1">
          <mxGeometry width="160" relative="1" as="geometry">
            <mxPoint x="110" y="520" as="sourcePoint" />
            <mxPoint x="30" y="519.56" as="targetPoint" />
          </mxGeometry>
        </mxCell>
        <mxCell id="u7kxUPXxIa-7Uggaq3-m-124" value="&lt;font style=&quot;font-size: 4px;&quot;&gt;mR&lt;/font&gt;" style="text;html=1;align=center;verticalAlign=middle;resizable=0;points=[];autosize=1;strokeColor=none;fillColor=none;" vertex="1" parent="1">
          <mxGeometry x="160" y="510" width="30" height="30" as="geometry" />
        </mxCell>
        <mxCell id="u7kxUPXxIa-7Uggaq3-m-125" value="&lt;div style=&quot;line-height: 60%;&quot;&gt;&lt;font style=&quot;font-size: 4px; line-height: 60%;&quot;&gt;ResponseStatus&lt;/font&gt;&lt;div&gt;&lt;font style=&quot;font-size: 4px; line-height: 60%;&quot;&gt;(mR, HttpStatus.FOUND)&lt;/font&gt;&lt;/div&gt;&lt;/div&gt;" style="text;html=1;align=center;verticalAlign=middle;resizable=0;points=[];autosize=1;strokeColor=none;fillColor=none;" vertex="1" parent="1">
          <mxGeometry x="40" y="510" width="70" height="30" as="geometry" />
        </mxCell>
        <mxCell id="u7kxUPXxIa-7Uggaq3-m-126" value="&lt;font style=&quot;font-size: 4px;&quot;&gt;mR=MeetingResponse&lt;/font&gt;" style="text;html=1;align=center;verticalAlign=middle;resizable=0;points=[];autosize=1;strokeColor=none;fillColor=none;" vertex="1" parent="1">
          <mxGeometry x="265" y="510" width="60" height="30" as="geometry" />
        </mxCell>
        <mxCell id="u7kxUPXxIa-7Uggaq3-m-127" value="GET" style="text;html=1;align=center;verticalAlign=middle;resizable=0;points=[];autosize=1;strokeColor=none;fillColor=none;" vertex="1" parent="1">
          <mxGeometry x="5" y="290" width="50" height="30" as="geometry" />
        </mxCell>
        <mxCell id="u7kxUPXxIa-7Uggaq3-m-128" value="" style="shape=umlLifeline;perimeter=lifelinePerimeter;whiteSpace=wrap;html=1;container=1;dropTarget=0;collapsible=0;recursiveResize=0;outlineConnect=0;portConstraint=eastwest;newEdgeStyle={&quot;curved&quot;:0,&quot;rounded&quot;:0};participant=umlActor;" vertex="1" parent="1">
          <mxGeometry x="15" y="590" width="20" height="300" as="geometry" />
        </mxCell>
        <mxCell id="u7kxUPXxIa-7Uggaq3-m-129" value="" style="html=1;whiteSpace=wrap;" vertex="1" parent="1">
          <mxGeometry x="15" y="640" width="20" height="220" as="geometry" />
        </mxCell>
        <mxCell id="u7kxUPXxIa-7Uggaq3-m-130" value="&lt;font style=&quot;font-size: 4px;&quot;&gt;changeMeeting(Id, MeetingChangeRequest)&lt;/font&gt;" style="html=1;verticalAlign=bottom;endArrow=block;curved=0;rounded=0;" edge="1" parent="1">
          <mxGeometry width="80" relative="1" as="geometry">
            <mxPoint x="35" y="650" as="sourcePoint" />
            <mxPoint x="115" y="650" as="targetPoint" />
          </mxGeometry>
        </mxCell>
        <mxCell id="u7kxUPXxIa-7Uggaq3-m-131" value="&lt;font style=&quot;font-size: 11px;&quot;&gt;:MeetingController&lt;/font&gt;" style="shape=umlLifeline;perimeter=lifelinePerimeter;whiteSpace=wrap;html=1;container=1;dropTarget=0;collapsible=0;recursiveResize=0;outlineConnect=0;portConstraint=eastwest;newEdgeStyle={&quot;curved&quot;:0,&quot;rounded&quot;:0};" vertex="1" parent="1">
          <mxGeometry x="75" y="590" width="100" height="300" as="geometry" />
        </mxCell>
        <mxCell id="u7kxUPXxIa-7Uggaq3-m-132" value="" style="html=1;whiteSpace=wrap;" vertex="1" parent="1">
          <mxGeometry x="115" y="650" width="20" height="210" as="geometry" />
        </mxCell>
        <mxCell id="u7kxUPXxIa-7Uggaq3-m-133" value="&lt;font style=&quot;font-size: 11px;&quot;&gt;:MeetingService&lt;/font&gt;" style="shape=umlLifeline;perimeter=lifelinePerimeter;whiteSpace=wrap;html=1;container=1;dropTarget=0;collapsible=0;recursiveResize=0;outlineConnect=0;portConstraint=eastwest;newEdgeStyle={&quot;curved&quot;:0,&quot;rounded&quot;:0};" vertex="1" parent="1">
          <mxGeometry x="185" y="590" width="100" height="300" as="geometry" />
        </mxCell>
        <mxCell id="u7kxUPXxIa-7Uggaq3-m-134" value="&lt;font style=&quot;font-size: 11px;&quot;&gt;:MeetingRepository&lt;/font&gt;" style="shape=umlLifeline;perimeter=lifelinePerimeter;whiteSpace=wrap;html=1;container=1;dropTarget=0;collapsible=0;recursiveResize=0;outlineConnect=0;portConstraint=eastwest;newEdgeStyle={&quot;curved&quot;:0,&quot;rounded&quot;:0};" vertex="1" parent="1">
          <mxGeometry x="405" y="590" width="100" height="300" as="geometry" />
        </mxCell>
        <mxCell id="u7kxUPXxIa-7Uggaq3-m-136" value="" style="html=1;whiteSpace=wrap;" vertex="1" parent="1">
          <mxGeometry x="225" y="660" width="20" height="200" as="geometry" />
        </mxCell>
        <mxCell id="u7kxUPXxIa-7Uggaq3-m-137" value="&lt;div style=&quot;line-height: 60%;&quot;&gt;&lt;span style=&quot;font-size: 4px;&quot;&gt;changeMeetingIn&lt;/span&gt;&lt;/div&gt;&lt;div style=&quot;line-height: 60%;&quot;&gt;&lt;span style=&quot;font-size: 4px;&quot;&gt;Database(MeetingChangeRequest)&lt;/span&gt;&lt;/div&gt;" style="html=1;verticalAlign=bottom;endArrow=block;curved=0;rounded=0;entryX=0;entryY=0;entryDx=0;entryDy=0;" edge="1" parent="1" target="u7kxUPXxIa-7Uggaq3-m-136">
          <mxGeometry x="-0.2222" width="80" relative="1" as="geometry">
            <mxPoint x="135" y="660" as="sourcePoint" />
            <mxPoint x="215" y="660" as="targetPoint" />
            <mxPoint as="offset" />
          </mxGeometry>
        </mxCell>
        <mxCell id="u7kxUPXxIa-7Uggaq3-m-142" value="" style="html=1;whiteSpace=wrap;" vertex="1" parent="1">
          <mxGeometry x="445" y="830" width="20" height="30" as="geometry" />
        </mxCell>
        <mxCell id="u7kxUPXxIa-7Uggaq3-m-143" value="" style="endArrow=open;dashed=1;endFill=0;endSize=12;html=1;rounded=0;exitX=0;exitY=1;exitDx=0;exitDy=0;entryX=1;entryY=1;entryDx=0;entryDy=0;" edge="1" parent="1">
          <mxGeometry width="160" relative="1" as="geometry">
            <mxPoint x="445" y="860.0000000000002" as="sourcePoint" />
            <mxPoint x="245" y="860.0000000000002" as="targetPoint" />
            <Array as="points">
              <mxPoint x="350" y="860" />
            </Array>
          </mxGeometry>
        </mxCell>
        <mxCell id="u7kxUPXxIa-7Uggaq3-m-144" value="" style="html=1;verticalAlign=bottom;endArrow=block;curved=0;rounded=0;entryX=0;entryY=0;entryDx=0;entryDy=0;exitX=1.008;exitY=0.848;exitDx=0;exitDy=0;exitPerimeter=0;" edge="1" parent="1" target="u7kxUPXxIa-7Uggaq3-m-142" source="u7kxUPXxIa-7Uggaq3-m-136">
          <mxGeometry width="80" relative="1" as="geometry">
            <mxPoint x="245" y="735" as="sourcePoint" />
            <mxPoint x="325" y="735" as="targetPoint" />
          </mxGeometry>
        </mxCell>
        <mxCell id="u7kxUPXxIa-7Uggaq3-m-145" value="&lt;font style=&quot;font-size: 4px;&quot;&gt;save(meetingEntity)&lt;/font&gt;" style="text;html=1;align=center;verticalAlign=middle;resizable=0;points=[];autosize=1;strokeColor=none;fillColor=none;" vertex="1" parent="1">
          <mxGeometry x="310" y="802" width="60" height="30" as="geometry" />
        </mxCell>
        <mxCell id="u7kxUPXxIa-7Uggaq3-m-146" value="" style="endArrow=open;dashed=1;endFill=0;endSize=12;html=1;rounded=0;entryX=1;entryY=1;entryDx=0;entryDy=0;" edge="1" parent="1">
          <mxGeometry width="160" relative="1" as="geometry">
            <mxPoint x="225" y="860" as="sourcePoint" />
            <mxPoint x="135" y="860" as="targetPoint" />
          </mxGeometry>
        </mxCell>
        <mxCell id="u7kxUPXxIa-7Uggaq3-m-147" value="" style="endArrow=open;dashed=1;endFill=0;endSize=12;html=1;rounded=0;entryX=1;entryY=1;entryDx=0;entryDy=0;" edge="1" parent="1">
          <mxGeometry width="160" relative="1" as="geometry">
            <mxPoint x="115" y="860" as="sourcePoint" />
            <mxPoint x="35" y="859.56" as="targetPoint" />
          </mxGeometry>
        </mxCell>
        <mxCell id="u7kxUPXxIa-7Uggaq3-m-148" value="PUT" style="text;html=1;align=center;verticalAlign=middle;resizable=0;points=[];autosize=1;strokeColor=none;fillColor=none;" vertex="1" parent="1">
          <mxGeometry x="10" y="560" width="50" height="30" as="geometry" />
        </mxCell>
        <mxCell id="u7kxUPXxIa-7Uggaq3-m-153" value="" style="html=1;whiteSpace=wrap;" vertex="1" parent="1">
          <mxGeometry x="445" y="665" width="20" height="25" as="geometry" />
        </mxCell>
        <mxCell id="u7kxUPXxIa-7Uggaq3-m-155" value="" style="html=1;verticalAlign=bottom;endArrow=block;curved=0;rounded=0;entryX=0;entryY=0;entryDx=0;entryDy=0;" edge="1" parent="1" target="u7kxUPXxIa-7Uggaq3-m-153">
          <mxGeometry width="80" relative="1" as="geometry">
            <mxPoint x="245" y="665" as="sourcePoint" />
            <mxPoint x="325" y="665" as="targetPoint" />
          </mxGeometry>
        </mxCell>
        <mxCell id="u7kxUPXxIa-7Uggaq3-m-156" value="&lt;font style=&quot;font-size: 4px;&quot;&gt;findById(Id)&lt;/font&gt;" style="text;html=1;align=center;verticalAlign=middle;resizable=0;points=[];autosize=1;strokeColor=none;fillColor=none;" vertex="1" parent="1">
          <mxGeometry x="320" y="640" width="40" height="30" as="geometry" />
        </mxCell>
        <mxCell id="u7kxUPXxIa-7Uggaq3-m-157" value="&lt;font style=&quot;font-size: 4px;&quot;&gt;MeetingEntity=Optional&amp;lt;MeetingEntity&amp;gt;&lt;/font&gt;" style="text;html=1;align=center;verticalAlign=middle;resizable=0;points=[];autosize=1;strokeColor=none;fillColor=none;" vertex="1" parent="1">
          <mxGeometry x="300" y="665" width="90" height="30" as="geometry" />
        </mxCell>
        <mxCell id="u7kxUPXxIa-7Uggaq3-m-160" value="" style="endArrow=open;dashed=1;endFill=0;endSize=12;html=1;rounded=0;exitX=0;exitY=1;exitDx=0;exitDy=0;entryX=0.967;entryY=0.148;entryDx=0;entryDy=0;entryPerimeter=0;" edge="1" parent="1" source="u7kxUPXxIa-7Uggaq3-m-153" target="u7kxUPXxIa-7Uggaq3-m-136">
          <mxGeometry width="160" relative="1" as="geometry">
            <mxPoint x="445" y="690" as="sourcePoint" />
            <mxPoint x="290" y="700" as="targetPoint" />
          </mxGeometry>
        </mxCell>
        <mxCell id="u7kxUPXxIa-7Uggaq3-m-159" value="" style="rounded=0;whiteSpace=wrap;html=1;" vertex="1" parent="1">
          <mxGeometry x="240" y="705" width="15" height="30" as="geometry" />
        </mxCell>
        <mxCell id="u7kxUPXxIa-7Uggaq3-m-162" value="" style="html=1;verticalAlign=bottom;endArrow=block;curved=1;rounded=0;exitX=0.946;exitY=0.179;exitDx=0;exitDy=0;exitPerimeter=0;entryX=1;entryY=0.25;entryDx=0;entryDy=0;" edge="1" parent="1" source="u7kxUPXxIa-7Uggaq3-m-136" target="u7kxUPXxIa-7Uggaq3-m-159">
          <mxGeometry width="80" relative="1" as="geometry">
            <mxPoint x="240" y="710" as="sourcePoint" />
            <mxPoint x="350" y="730" as="targetPoint" />
            <Array as="points">
              <mxPoint x="290" y="710" />
            </Array>
          </mxGeometry>
        </mxCell>
        <mxCell id="u7kxUPXxIa-7Uggaq3-m-163" value="" style="endArrow=open;dashed=1;endFill=0;endSize=12;html=1;rounded=0;exitX=1;exitY=0.75;exitDx=0;exitDy=0;entryX=0.967;entryY=0.435;entryDx=0;entryDy=0;curved=1;entryPerimeter=0;" edge="1" parent="1" source="u7kxUPXxIa-7Uggaq3-m-159" target="u7kxUPXxIa-7Uggaq3-m-136">
          <mxGeometry width="160" relative="1" as="geometry">
            <mxPoint x="200" y="710" as="sourcePoint" />
            <mxPoint x="360" y="710" as="targetPoint" />
            <Array as="points">
              <mxPoint x="270" y="740" />
            </Array>
          </mxGeometry>
        </mxCell>
        <mxCell id="u7kxUPXxIa-7Uggaq3-m-164" value="" style="rounded=0;whiteSpace=wrap;html=1;" vertex="1" parent="1">
          <mxGeometry x="240" y="772" width="15" height="30" as="geometry" />
        </mxCell>
        <mxCell id="u7kxUPXxIa-7Uggaq3-m-165" value="" style="html=1;verticalAlign=bottom;endArrow=block;curved=1;rounded=0;exitX=0.988;exitY=0.452;exitDx=0;exitDy=0;exitPerimeter=0;entryX=1;entryY=0.25;entryDx=0;entryDy=0;" edge="1" parent="1" target="u7kxUPXxIa-7Uggaq3-m-164" source="u7kxUPXxIa-7Uggaq3-m-136">
          <mxGeometry width="80" relative="1" as="geometry">
            <mxPoint x="254" y="740" as="sourcePoint" />
            <mxPoint x="360" y="774" as="targetPoint" />
            <Array as="points">
              <mxPoint x="300" y="754" />
            </Array>
          </mxGeometry>
        </mxCell>
        <mxCell id="u7kxUPXxIa-7Uggaq3-m-166" value="" style="endArrow=open;dashed=1;endFill=0;endSize=12;html=1;rounded=0;exitX=1;exitY=0.75;exitDx=0;exitDy=0;entryX=1;entryY=0.5;entryDx=0;entryDy=0;curved=1;" edge="1" parent="1" source="u7kxUPXxIa-7Uggaq3-m-164">
          <mxGeometry width="160" relative="1" as="geometry">
            <mxPoint x="200" y="777" as="sourcePoint" />
            <mxPoint x="245" y="827" as="targetPoint" />
            <Array as="points">
              <mxPoint x="270" y="807" />
            </Array>
          </mxGeometry>
        </mxCell>
        <mxCell id="u7kxUPXxIa-7Uggaq3-m-167" value="&lt;font style=&quot;font-size: 7px;&quot;&gt;*&lt;/font&gt;" style="text;html=1;align=center;verticalAlign=middle;resizable=0;points=[];autosize=1;strokeColor=none;fillColor=none;" vertex="1" parent="1">
          <mxGeometry x="325" y="850" width="30" height="30" as="geometry" />
        </mxCell>
        <mxCell id="u7kxUPXxIa-7Uggaq3-m-168" value="&lt;font style=&quot;font-size: 4px;&quot;&gt;validateData(MeetingChangeRequest)&lt;/font&gt;" style="text;html=1;align=center;verticalAlign=middle;resizable=0;points=[];autosize=1;strokeColor=none;fillColor=none;" vertex="1" parent="1">
          <mxGeometry x="265" y="690" width="90" height="30" as="geometry" />
        </mxCell>
        <mxCell id="u7kxUPXxIa-7Uggaq3-m-169" value="&lt;font style=&quot;font-size: 4px;&quot;&gt;changeMeetingData()&lt;/font&gt;" style="text;html=1;align=center;verticalAlign=middle;resizable=0;points=[];autosize=1;strokeColor=none;fillColor=none;" vertex="1" parent="1">
          <mxGeometry x="270" y="745" width="60" height="30" as="geometry" />
        </mxCell>
        <mxCell id="u7kxUPXxIa-7Uggaq3-m-170" value="&lt;font style=&quot;font-size: 7px;&quot;&gt;*&lt;/font&gt;" style="text;html=1;align=center;verticalAlign=middle;resizable=0;points=[];autosize=1;strokeColor=none;fillColor=none;" vertex="1" parent="1">
          <mxGeometry x="170" y="850" width="30" height="30" as="geometry" />
        </mxCell>
        <mxCell id="u7kxUPXxIa-7Uggaq3-m-171" value="&lt;font style=&quot;font-size: 4px;&quot;&gt;ResponseEntity(HttpStatus.OK)&lt;/font&gt;" style="text;html=1;align=center;verticalAlign=middle;resizable=0;points=[];autosize=1;strokeColor=none;fillColor=none;" vertex="1" parent="1">
          <mxGeometry x="45" y="850" width="80" height="30" as="geometry" />
        </mxCell>
      </root>
    </mxGraphModel>
  </diagram>
</mxfile>
